<svg class="svg-icon" style="width: 1em;height: 1em;vertical-align: middle;fill: currentColor;overflow: hidden;" viewBox="0 0 1024 1024" version="1.1" xmlns="http://www.w3.org/2000/svg"><path d="M512 65.6c247.424 0 448 200.576 448 448S759.424 961.6 512 961.6 64 761.024 64 513.6 264.576 65.6 512 65.6z m0 48C291.0864 113.6 112 292.6864 112 513.6s179.0864 400 400 400 400-179.0864 400-400S732.9136 113.6 512 113.6z m0 209.6c13.2544 0 24 10.7456 24 24v144h144c13.2544 0 24 10.7456 24 24 0 13.2544-10.7456 24-24 24h-144.0016l0.0016 144c0 13.2544-10.7456 24-24 24-13.2544 0-24-10.7456-24-24l-0.0016-144H344c-13.2544 0-24-10.7456-24-24 0-13.2544 10.7456-24 24-24h144v-144c0-13.2544 10.7456-24 24-24z" fill="#979797" /></svg>